<svg width="1440" height="1245" viewBox="0 0 1440 1245" fill="none" xmlns="http://www.w3.org/2000/svg">
<path d="M3.99365 100.754L352.951 555.092L584.494 61.0908M584.494 61.0908L1223.45 61.0908M584.494 61.0908L911.951 294.59M584.494 61.0908L294.244 262.591L3.99376 464.091M584.494 61.0908L193.45 100.754L3.99376 464.091M3.99376 464.091L457.972 531.591L911.951 599.091M3.99376 464.091L459.45 762.09L911.951 599.091M911.951 599.091L911.951 294.59M911.951 599.091L1157.18 424.172L1402.41 249.254M911.951 599.091L1447.45 576.09L1402.41 249.254M911.951 599.091L1131.95 735.59L1402.41 249.254M1223.45 61.0908L1402.41 249.254M1223.45 61.0908L1067.7 177.841L911.951 294.59M1223.45 61.0908L1272.95 583.585L911.951 294.59" stroke="#B0A990" stroke-opacity="0.4"/>
</svg>
