<?xml version="1.0" encoding="UTF-8" standalone="no"?>
<svg
   xmlns:dc="http://purl.org/dc/elements/1.1/"
   xmlns:cc="http://creativecommons.org/ns#"
   xmlns:rdf="http://www.w3.org/1999/02/22-rdf-syntax-ns#"
   xmlns:svg="http://www.w3.org/2000/svg"
   xmlns="http://www.w3.org/2000/svg"
   xmlns:sodipodi="http://sodipodi.sourceforge.net/DTD/sodipodi-0.dtd"
   xmlns:inkscape="http://www.inkscape.org/namespaces/inkscape"
   width="75.688766mm"
   height="18.167564mm"
   viewBox="0 0 75.688766 18.167564"
   version="1.1"
   id="svg8"
   inkscape:version="1.0.2-2 (e86c870879, 2021-01-15)"
   sodipodi:docname="logo.svg">
  <defs
     id="defs2" />
  <sodipodi:namedview
     id="base"
     pagecolor="#ffffff"
     bordercolor="#666666"
     borderopacity="1.0"
     inkscape:pageopacity="0.0"
     inkscape:pageshadow="2"
     inkscape:zoom="1.4"
     inkscape:cx="213.23733"
     inkscape:cy="51.498571"
     inkscape:document-units="mm"
     inkscape:current-layer="g941"
     inkscape:document-rotation="0"
     showgrid="false"
     fit-margin-top="0"
     fit-margin-left="0"
     fit-margin-right="0"
     fit-margin-bottom="0"
     inkscape:window-width="1920"
     inkscape:window-height="1051"
     inkscape:window-x="-9"
     inkscape:window-y="-9"
     inkscape:window-maximized="1" />
  <metadata
     id="metadata5">
    <rdf:RDF>
      <cc:Work
         rdf:about="">
        <dc:format>image/svg+xml</dc:format>
        <dc:type
           rdf:resource="http://purl.org/dc/dcmitype/StillImage" />
        <dc:title></dc:title>
      </cc:Work>
    </rdf:RDF>
  </metadata>
  <g
     inkscape:label="Layer 1"
     inkscape:groupmode="layer"
     id="layer1"
     transform="translate(-47.932797,-66.265412)">
    <g
       id="g941">
      <text
         xml:space="preserve"
         style="font-style:normal;font-variant:normal;font-weight:normal;font-stretch:normal;font-size:10.5833px;line-height:1.25;font-family:'Segoe Script';-inkscape-font-specification:'Segoe Script';fill:#000000;fill-opacity:1;stroke:none;stroke-width:0.264583"
         x="59.052063"
         y="77.420265"
         id="text12"><tspan
           sodipodi:role="line"
           x="59.052063"
           y="77.420265"
           style="font-style:normal;font-variant:normal;font-weight:normal;font-stretch:normal;font-family:'Segoe Script';-inkscape-font-specification:'Segoe Script';fill:#202030;fill-opacity:1;stroke-width:0.264583"
           id="tspan22">imapulator</tspan></text>
      <text
         xml:space="preserve"
         style="font-style:normal;font-variant:normal;font-weight:normal;font-stretch:normal;font-size:4.93889px;line-height:1.25;font-family:'Segoe Script';-inkscape-font-specification:'Segoe Script';fill:#000000;fill-opacity:1;stroke:none;stroke-width:0.264583"
         x="70.670418"
         y="83.399101"
         id="text20"><tspan
           sodipodi:role="line"
           id="tspan18"
           x="70.670418"
           y="83.399101"
           style="font-style:normal;font-variant:normal;font-weight:normal;font-stretch:normal;font-size:4.93889px;font-family:'Sitka Banner';-inkscape-font-specification:'Sitka Banner';fill:#b3b3b3;fill-opacity:1;stroke-width:0.264583">simple image manipulator</tspan></text>
      <g
         id="g88"
         transform="translate(28.657406,-2.6458333)">
        <g
           id="g103"
           transform="translate(-5.4806548,-0.37797619)">
          <g
             id="g930"
             transform="translate(4.1426777,-0.06681738)">
            <path
               style="fill:#229660;fill-opacity:1;stroke:#176440;stroke-width:0.2;stroke-miterlimit:4;stroke-dasharray:none;stroke-opacity:1"
               id="path82"
               d="m 22.717417,74.049534 c 0.699934,-0.0056 1.400445,-0.02466 2.100437,-0.0127 0.13508,0.0024 0.874384,-0.0068 1.053933,0.124928 0.06707,0.04922 0.02718,0.164153 0.04077,0.246229 -1.07283,1.874742 -2.518344,3.498019 -3.644405,5.340541 -0.293357,0.480007 -0.5525,0.980106 -0.828749,1.47016 -0.205632,0.463912 -0.497761,0.898477 -0.616895,1.391737 -0.109469,0.453247 -0.150754,0.940967 -0.05681,1.397685 0.190198,0.924693 0.978675,1.915803 1.880063,2.235949 1.714839,0.60906 3.649988,0.177512 5.359133,0.0027 1.038061,-0.215826 2.076121,-0.431652 3.114182,-0.647478 0,0 1.911078,-1.449789 1.911078,-1.449789 v 0 c -1.025803,0.217143 -2.051603,0.434287 -3.077406,0.65143 -1.535152,0.157822 -3.520675,0.573278 -5.090583,0.04272 -0.826122,-0.279185 -1.568477,-1.173548 -1.730529,-2.026052 -0.08114,-0.426857 -0.02872,-0.880311 0.0797,-1.301067 0.123732,-0.480163 0.403788,-0.905769 0.605681,-1.358654 0.865082,-1.516221 0.781193,-1.451999 1.807149,-2.905863 0.24669,-0.349581 1.592625,-2.131843 1.877841,-2.539344 0.212161,-0.303125 0.436377,-0.60116 0.605843,-0.930063 0.115456,-0.224079 0.161629,-0.477539 0.242443,-0.716307 -0.06566,-0.157959 -0.06974,-0.359537 -0.196974,-0.473871 -0.199073,-0.178882 -0.934662,-0.160454 -1.122358,-0.163544 -0.688295,-0.01135 -1.377262,0.01077 -2.065506,-0.0127 0,0 -2.248038,1.633294 -2.248038,1.633294 z" />
            <path
               style="fill:#229660;fill-opacity:1;stroke:#176440;stroke-width:0.2;stroke-miterlimit:4;stroke-dasharray:none;stroke-opacity:1"
               id="path84"
               d="m 26.456126,71.099087 c 0.724789,-0.01474 1.44975,-0.0122 2.174634,-0.0097 0,0 2.233819,-1.622965 2.233819,-1.622965 v 0 c -0.715939,0.0024 -1.43197,0.0053 -2.147811,-0.0097 0,0 -2.260642,1.642454 -2.260642,1.642454 z" />
          </g>
        </g>
      </g>
    </g>
  </g>
</svg>
